<svg width="43" height="43" viewBox="0 0 43 43" fill="none" xmlns="http://www.w3.org/2000/svg">
    <circle cx="21.4673" cy="21.6426" r="21" fill="#2D4ACD"/>
    <path d="M21.4686 22.2086C19.0768 22.2086 17.1301 20.262 17.1301 17.8702C17.1301 15.4784 19.0768 13.5317 21.4686 13.5317C23.8603 13.5317 25.807 15.4784 25.807 17.8702C25.807 20.262 23.8603 22.2086 21.4686 22.2086ZM21.4686 14.6635C19.703 14.6635 18.2619 16.1046 18.2619 17.8702C18.2619 19.6357 19.703 21.0768 21.4686 21.0768C23.2341 21.0768 24.6752 19.6357 24.6752 17.8702C24.6752 16.1046 23.2341 14.6635 21.4686 14.6635Z" fill="white"/>
    <path d="M27.95 29.7537C27.6406 29.7537 27.3841 29.4971 27.3841 29.1878C27.3841 26.5847 24.7282 24.4721 21.4687 24.4721C18.2093 24.4721 15.5534 26.5847 15.5534 29.1878C15.5534 29.4971 15.2969 29.7537 14.9875 29.7537C14.6782 29.7537 14.4216 29.4971 14.4216 29.1878C14.4216 25.966 17.583 23.3403 21.4687 23.3403C25.3545 23.3403 28.5158 25.966 28.5158 29.1878C28.5158 29.4971 28.2593 29.7537 27.95 29.7537Z" fill="white"/>
    </svg>
    