<svg width="43" height="43" viewBox="0 0 43 43" fill="none" xmlns="http://www.w3.org/2000/svg">
    <circle cx="21.4277" cy="21.9351" r="20.5" fill="#F7F8FD" stroke="#B5BEEE"/>
    <path d="M21.429 22.5011C19.0372 22.5011 17.0906 20.5544 17.0906 18.1626C17.0906 15.7709 19.0372 13.8242 21.429 13.8242C23.8208 13.8242 25.7674 15.7709 25.7674 18.1626C25.7674 20.5544 23.8208 22.5011 21.429 22.5011ZM21.429 14.956C19.6635 14.956 18.2223 16.3971 18.2223 18.1626C18.2223 19.9282 19.6635 21.3693 21.429 21.3693C23.1946 21.3693 24.6357 19.9282 24.6357 18.1626C24.6357 16.3971 23.1946 14.956 21.429 14.956Z" fill="#2D4ACD"/>
    <path d="M27.9104 30.0461C27.6011 30.0461 27.3445 29.7896 27.3445 29.4803C27.3445 26.8772 24.6887 24.7646 21.4292 24.7646C18.1697 24.7646 15.5138 26.8772 15.5138 29.4803C15.5138 29.7896 15.2573 30.0461 14.948 30.0461C14.6386 30.0461 14.3821 29.7896 14.3821 29.4803C14.3821 26.2585 17.5435 23.6328 21.4292 23.6328C25.3149 23.6328 28.4763 26.2585 28.4763 29.4803C28.4763 29.7896 28.2198 30.0461 27.9104 30.0461Z" fill="#2D4ACD"/>
    </svg>
    