<svg width="43" height="43" viewBox="0 0 43 43" fill="none" xmlns="http://www.w3.org/2000/svg">
    <circle cx="21.4673" cy="21.8525" r="21" fill="#2D4ACD"/>
    <circle cx="21.4673" cy="21.8525" r="20.5" stroke="#2D4ACD" stroke-opacity="0.33"/>
    <path d="M16.9417 20.3432V18.8342C16.9417 16.3368 17.6962 14.3071 21.4687 14.3071C25.2412 14.3071 25.9958 16.3368 25.9958 18.8342V20.3432" stroke="white" stroke-linecap="round" stroke-linejoin="round"/>
    <path d="M21.4685 26.7569C22.5103 26.7569 23.3548 25.9124 23.3548 24.8706C23.3548 23.8289 22.5103 22.9844 21.4685 22.9844C20.4268 22.9844 19.5823 23.8289 19.5823 24.8706C19.5823 25.9124 20.4268 26.7569 21.4685 26.7569Z" stroke="white" stroke-linecap="round" stroke-linejoin="round"/>
    <path d="M25.2412 29.3974H17.6961C14.6781 29.3974 13.9236 28.6429 13.9236 25.6248V24.1158C13.9236 21.0978 14.6781 20.3433 17.6961 20.3433H25.2412C28.2592 20.3433 29.0138 21.0978 29.0138 24.1158V25.6248C29.0138 28.6429 28.2592 29.3974 25.2412 29.3974Z" stroke="white" stroke-linecap="round" stroke-linejoin="round"/>
    </svg>
    