<svg width="43" height="43" viewBox="0 0 43 43" fill="none" xmlns="http://www.w3.org/2000/svg">
    <circle cx="21.4277" cy="21.1479" r="21" fill="#2D4ACD" fill-opacity="0.04"/>
    <circle cx="21.4277" cy="21.1479" r="20.5" stroke="#2D4ACD" stroke-opacity="0.33"/>
    <path d="M16.9019 19.6386V18.1296C16.9019 15.6322 17.6564 13.6025 21.4289 13.6025C25.2014 13.6025 25.956 15.6322 25.956 18.1296V19.6386" stroke="#2D4ACD" stroke-linecap="round" stroke-linejoin="round"/>
    <path d="M21.4292 26.0523C22.471 26.0523 23.3155 25.2078 23.3155 24.1661C23.3155 23.1243 22.471 22.2798 21.4292 22.2798C20.3875 22.2798 19.543 23.1243 19.543 24.1661C19.543 25.2078 20.3875 26.0523 21.4292 26.0523Z" stroke="#2D4ACD" stroke-linecap="round" stroke-linejoin="round"/>
    <path d="M25.2014 28.6928H17.6563C14.6383 28.6928 13.8838 27.9383 13.8838 24.9202V23.4112C13.8838 20.3932 14.6383 19.6387 17.6563 19.6387H25.2014C28.2195 19.6387 28.974 20.3932 28.974 23.4112V24.9202C28.974 27.9383 28.2195 28.6928 25.2014 28.6928Z" stroke="#2D4ACD" stroke-linecap="round" stroke-linejoin="round"/>
    </svg>
    