<svg width="21" height="22" viewBox="0 0 21 22" fill="none" xmlns="http://www.w3.org/2000/svg">
<path d="M13.2667 20.0718H8.26668C3.74168 20.0718 1.80835 18.1079 1.80835 13.5113V8.43214C1.80835 3.83552 3.74168 1.87158 8.26668 1.87158H9.93335C10.275 1.87158 10.5583 2.1594 10.5583 2.50647C10.5583 2.85355 10.275 3.14137 9.93335 3.14137H8.26668C4.42502 3.14137 3.05835 4.52966 3.05835 8.43214V13.5113C3.05835 17.4137 4.42502 18.802 8.26668 18.802H13.2667C17.1083 18.802 18.475 17.4137 18.475 13.5113V11.8182C18.475 11.4712 18.7583 11.1833 19.1 11.1833C19.4417 11.1833 19.725 11.4712 19.725 11.8182V13.5113C19.725 18.1079 17.7917 20.0718 13.2667 20.0718Z" fill="#292D32" fill-opacity="0.83"/>
<path d="M7.84996 15.7888C7.34163 15.7888 6.87496 15.6026 6.53329 15.2639C6.12496 14.8492 5.94996 14.2481 6.04163 13.6132L6.39996 11.0652C6.46663 10.5742 6.78329 9.93932 7.12496 9.59224L13.6916 2.92164C15.35 1.23706 17.0333 1.23706 18.6916 2.92164C19.6 3.84435 20.0083 4.78399 19.925 5.72363C19.85 6.4855 19.45 7.23044 18.6916 7.99231L12.125 14.6629C11.7833 15.01 11.1583 15.3317 10.675 15.3994L8.16663 15.7634C8.05829 15.7888 7.94996 15.7888 7.84996 15.7888ZM14.575 3.81895L8.00829 10.4896C7.84996 10.6504 7.66663 11.0229 7.63329 11.243L7.27496 13.791C7.24163 14.0365 7.29163 14.2397 7.41663 14.3666C7.54163 14.4936 7.74163 14.5444 7.98329 14.5105L10.4916 14.1465C10.7083 14.1127 11.0833 13.9264 11.2333 13.7656L17.8 7.095C18.3416 6.54476 18.625 6.05378 18.6666 5.59665C18.7166 5.04641 18.4333 4.46231 17.8 3.81049C16.4666 2.45605 15.55 2.83699 14.575 3.81895Z" fill="#292D32" fill-opacity="0.83"/>
<path d="M17.3082 9.13468C17.2498 9.13468 17.1915 9.12622 17.1415 9.10929C14.9498 8.48286 13.2082 6.71362 12.5915 4.48727C12.4998 4.14866 12.6915 3.80158 13.0248 3.7C13.3582 3.60688 13.6998 3.80158 13.7915 4.14019C14.2915 5.94329 15.6998 7.37391 17.4748 7.88183C17.8082 7.97494 17.9998 8.33048 17.9082 8.66909C17.8332 8.95691 17.5832 9.13468 17.3082 9.13468Z" fill="#292D32" fill-opacity="0.83"/>
</svg>
