<svg width="43" height="43" viewBox="0 0 43 43" fill="none" xmlns="http://www.w3.org/2000/svg">
    <circle cx="21.4277" cy="21.5483" r="21" fill="#2D4ACD" fill-opacity="0.04"/>
    <circle cx="21.4277" cy="21.5483" r="20.5" stroke="#2D4ACD" stroke-opacity="0.33"/>
    <path d="M21.4443 14.6899C18.9469 14.6899 16.9172 16.7196 16.9172 19.217V21.3975C16.9172 21.8578 16.7211 22.5595 16.4872 22.9518L15.6195 24.3929C15.0838 25.2832 15.4535 26.2716 16.4343 26.6036C19.6863 27.6901 23.1947 27.6901 26.4467 26.6036C27.3596 26.3018 27.7595 25.2229 27.2615 24.3929L26.3939 22.9518C26.1675 22.5595 25.9713 21.8578 25.9713 21.3975V19.217C25.9713 16.7271 23.9342 14.6899 21.4443 14.6899Z" stroke="#2D4ACD" stroke-miterlimit="10" stroke-linecap="round"/>
    <path d="M22.84 14.9087C22.6061 14.8408 22.3647 14.788 22.1157 14.7578C21.3914 14.6672 20.6972 14.7201 20.0483 14.9087C20.2671 14.3504 20.8104 13.958 21.4442 13.958C22.078 13.958 22.6212 14.3504 22.84 14.9087Z" stroke="#2D4ACD" stroke-miterlimit="10" stroke-linecap="round" stroke-linejoin="round"/>
    <path d="M23.7077 26.875C23.7077 28.1199 22.6891 29.1385 21.4442 29.1385C20.8255 29.1385 20.2521 28.882 19.8446 28.4746C19.4372 28.0671 19.1807 27.4937 19.1807 26.875" stroke="#2D4ACD" stroke-miterlimit="10"/>
    </svg>
    