<svg width="43" height="43" viewBox="0 0 43 43" fill="none" xmlns="http://www.w3.org/2000/svg">
    <circle cx="21.5083" cy="21.1924" r="21" fill="#2D4ACD"/>
    <circle cx="21.5083" cy="21.1924" r="20.5" stroke="#2D4ACD" stroke-opacity="0.33"/>
    <path d="M21.5249 14.334C19.0274 14.334 16.9978 16.3636 16.9978 18.861V21.0416C16.9978 21.5018 16.8016 22.2035 16.5677 22.5959L15.7 24.037C15.1643 24.9273 15.5341 25.9157 16.5149 26.2477C19.7668 27.3342 23.2753 27.3342 26.5272 26.2477C27.4402 25.9459 27.8401 24.8669 27.3421 24.037L26.4744 22.5959C26.2481 22.2035 26.0519 21.5018 26.0519 21.0416V18.861C26.0519 16.3712 24.0147 14.334 21.5249 14.334Z" stroke="white" stroke-miterlimit="10" stroke-linecap="round"/>
    <path d="M22.9206 14.5527C22.6867 14.4848 22.4452 14.432 22.1963 14.4018C21.4719 14.3113 20.7778 14.3641 20.1289 14.5527C20.3477 13.9944 20.891 13.6021 21.5247 13.6021C22.1585 13.6021 22.7018 13.9944 22.9206 14.5527Z" stroke="white" stroke-miterlimit="10" stroke-linecap="round" stroke-linejoin="round"/>
    <path d="M23.7883 26.519C23.7883 27.764 22.7697 28.7826 21.5248 28.7826C20.9061 28.7826 20.3326 28.526 19.9252 28.1186C19.5178 27.7112 19.2612 27.1377 19.2612 26.519" stroke="white" stroke-miterlimit="10"/>
    </svg>
    