<svg width="23" height="23" viewBox="0 0 23 23" fill="none" xmlns="http://www.w3.org/2000/svg">
<path d="M11.5225 14.6855C9.62496 14.6855 8.08496 13.1455 8.08496 11.248C8.08496 9.35055 9.62496 7.81055 11.5225 7.81055C13.42 7.81055 14.96 9.35055 14.96 11.248C14.96 13.1455 13.42 14.6855 11.5225 14.6855ZM11.5225 9.18555C10.3858 9.18555 9.45996 10.1114 9.45996 11.248C9.45996 12.3847 10.3858 13.3105 11.5225 13.3105C12.6591 13.3105 13.585 12.3847 13.585 11.248C13.585 10.1114 12.6591 9.18555 11.5225 9.18555Z" fill="#292D32"/>
<path d="M14.4651 20.5888C14.2726 20.5888 14.0801 20.5613 13.8876 20.5155C13.3193 20.3597 12.8426 20.0022 12.5401 19.498L12.4301 19.3146C11.8893 18.3797 11.1468 18.3797 10.606 19.3146L10.5051 19.4888C10.2026 20.0021 9.72596 20.3688 9.15762 20.5155C8.58012 20.6713 7.98429 20.5888 7.48012 20.2863L5.90346 19.3788C5.34429 19.058 4.94096 18.5355 4.76679 17.903C4.60179 17.2705 4.68429 16.6197 5.00512 16.0605C5.27096 15.593 5.34429 15.1713 5.18846 14.9055C5.03262 14.6397 4.63846 14.4838 4.09762 14.4838C2.75929 14.4838 1.66846 13.393 1.66846 12.0547V10.4413C1.66846 9.10298 2.75929 8.01215 4.09762 8.01215C4.63846 8.01215 5.03262 7.85632 5.18846 7.59048C5.34429 7.32465 5.28012 6.90298 5.00512 6.43548C4.68429 5.87632 4.60179 5.21632 4.76679 4.59298C4.93179 3.96048 5.33512 3.43798 5.90346 3.11715L7.48929 2.20965C8.52512 1.59548 9.89096 1.95298 10.5143 3.00715L10.6243 3.19048C11.1651 4.12548 11.9076 4.12548 12.4485 3.19048L12.5493 3.01632C13.1726 1.95298 14.5385 1.59548 15.5835 2.21882L17.1601 3.12632C17.7193 3.44715 18.1226 3.96965 18.2968 4.60215C18.4618 5.23465 18.3793 5.88548 18.0585 6.44465C17.7926 6.91215 17.7193 7.33382 17.8751 7.59965C18.031 7.86548 18.4251 8.02132 18.966 8.02132C20.3043 8.02132 21.3951 9.11215 21.3951 10.4505V12.0638C21.3951 13.4022 20.3043 14.493 18.966 14.493C18.4251 14.493 18.031 14.6488 17.8751 14.9147C17.7193 15.1805 17.7835 15.6022 18.0585 16.0697C18.3793 16.6288 18.471 17.2888 18.2968 17.9122C18.1318 18.5447 17.7285 19.0672 17.1601 19.388L15.5743 20.2955C15.226 20.488 14.8501 20.5888 14.4651 20.5888ZM11.5226 17.1972C12.3385 17.1972 13.0993 17.7105 13.6218 18.618L13.7226 18.7922C13.8326 18.9846 14.016 19.1222 14.236 19.1772C14.456 19.2322 14.676 19.2047 14.8593 19.0947L16.4451 18.178C16.6835 18.0405 16.8668 17.8113 16.9401 17.5363C17.0135 17.2613 16.9768 16.9771 16.8393 16.7388C16.3168 15.8405 16.2526 14.9146 16.656 14.2088C17.0593 13.503 17.8935 13.0997 18.9385 13.0997C19.5251 13.0997 19.9926 12.6322 19.9926 12.0455V10.4321C19.9926 9.85465 19.5251 9.37798 18.9385 9.37798C17.8935 9.37798 17.0593 8.97465 16.656 8.26882C16.2526 7.56298 16.3168 6.63715 16.8393 5.73882C16.9768 5.50048 17.0135 5.21632 16.9401 4.94132C16.8668 4.66632 16.6926 4.44632 16.4543 4.29965L14.8685 3.39215C14.4743 3.15382 13.9518 3.29132 13.7135 3.69465L13.6126 3.86882C13.0901 4.77632 12.3293 5.28965 11.5135 5.28965C10.6976 5.28965 9.93679 4.77632 9.41429 3.86882L9.31346 3.68548C9.08429 3.30048 8.57096 3.16298 8.17679 3.39215L6.59096 4.30882C6.35262 4.44632 6.16929 4.67548 6.09596 4.95048C6.02262 5.22548 6.05929 5.50965 6.19679 5.74798C6.71929 6.64632 6.78346 7.57215 6.38012 8.27798C5.97679 8.98382 5.14262 9.38715 4.09762 9.38715C3.51096 9.38715 3.04346 9.85465 3.04346 10.4413V12.0547C3.04346 12.6322 3.51096 13.1088 4.09762 13.1088C5.14262 13.1088 5.97679 13.5122 6.38012 14.218C6.78346 14.9238 6.71929 15.8497 6.19679 16.748C6.05929 16.9863 6.02262 17.2705 6.09596 17.5455C6.16929 17.8205 6.34346 18.0405 6.58179 18.1872L8.16762 19.0947C8.36012 19.2138 8.58929 19.2413 8.80012 19.1863C9.02012 19.1313 9.20346 18.9846 9.32262 18.7922L9.42346 18.618C9.94596 17.7197 10.7068 17.1972 11.5226 17.1972Z" fill="#292D32"/>
</svg>
