<svg width="23" height="23" viewBox="0 0 23 23" fill="#292D32" xmlns="http://www.w3.org/2000/svg">
<path d="M18.2566 5.70561L15.2952 2.74252C14.7439 2.18844 14.0881 1.74915 13.3659 1.45006C12.6437 1.15097 11.8694 0.998008 11.0877 1.00002H7.24999C6.12324 1.00137 5.04302 1.44957 4.24629 2.2463C3.44955 3.04304 3.00135 4.12326 3 5.25001V17.15C3.00135 18.2768 3.44955 19.357 4.24629 20.1537C5.04302 20.9504 6.12324 21.3986 7.24999 21.4H15.75C16.8767 21.3986 17.957 20.9504 18.7537 20.1537C19.5504 19.357 19.9986 18.2768 20 17.15V9.91226C20.0021 9.13062 19.8491 8.35633 19.5498 7.63424C19.2506 6.91215 18.811 6.25662 18.2566 5.70561V5.70561ZM17.0547 6.90751C17.3143 7.17454 17.5375 7.47462 17.7186 7.80001H14.05C13.8246 7.80001 13.6084 7.71046 13.4489 7.55105C13.2895 7.39165 13.2 7.17545 13.2 6.95001V3.28142C13.5255 3.4624 13.8258 3.6853 14.0933 3.94442L17.0547 6.90751ZM18.3 17.15C18.3 17.8263 18.0313 18.4749 17.5531 18.9531C17.0749 19.4313 16.4263 19.7 15.75 19.7H7.24999C6.57369 19.7 5.92509 19.4313 5.44687 18.9531C4.96866 18.4749 4.7 17.8263 4.7 17.15V5.25001C4.7 4.57371 4.96866 3.92511 5.44687 3.44689C5.92509 2.96868 6.57369 2.70002 7.24999 2.70002H11.0877C11.2271 2.70002 11.3623 2.72722 11.5 2.73997V6.95001C11.5 7.62631 11.7686 8.27492 12.2469 8.75313C12.7251 9.23135 13.3737 9.50001 14.05 9.50001H18.26C18.2728 9.63771 18.3 9.77201 18.3 9.91226V17.15Z" fill="#292D32"/>
</svg>
