<svg width="21" height="21" viewBox="0 0 21 21" fill="none" xmlns="http://www.w3.org/2000/svg">
    <path d="M17.6583 5.8259C17.6416 5.8259 17.6166 5.8259 17.5916 5.8259C13.1833 5.37724 8.78326 5.20794 4.42492 5.65659L2.72492 5.8259C2.37492 5.85976 2.06659 5.6058 2.03325 5.25026C1.99992 4.89472 2.24992 4.58997 2.59159 4.55611L4.29159 4.38681C8.72492 3.92969 13.2166 4.10746 17.7166 4.55611C18.0583 4.58997 18.3083 4.90319 18.2749 5.25026C18.2499 5.58041 17.9749 5.8259 17.6583 5.8259Z" fill="#292D32" />
    <path d="M7.24159 4.97097C7.20825 4.97097 7.17492 4.97097 7.13325 4.96251C6.79992 4.90325 6.56659 4.5731 6.62492 4.2345L6.80825 3.12555C6.94159 2.31289 7.12492 1.18701 9.06659 1.18701H11.2499C13.1999 1.18701 13.3833 2.35521 13.5083 3.13402L13.6916 4.2345C13.7499 4.58157 13.5166 4.91171 13.1833 4.96251C12.8416 5.02176 12.5166 4.78474 12.4666 4.44613L12.2833 3.34565C12.1666 2.60917 12.1416 2.46526 11.2583 2.46526H9.07492C8.19159 2.46526 8.17492 2.58378 8.04992 3.33718L7.85825 4.43766C7.80825 4.75087 7.54159 4.97097 7.24159 4.97097Z" fill="#292D32" />
    <path d="M12.8334 19.3873H7.48344C4.57511 19.3873 4.45844 17.7535 4.36678 16.433L3.82511 7.90846C3.80011 7.56139 4.06678 7.25664 4.40844 7.23124C4.75844 7.21431 5.05011 7.47674 5.07511 7.82381L5.61678 16.3483C5.70844 17.635 5.74178 18.1175 7.48344 18.1175H12.8334C14.5834 18.1175 14.6168 17.635 14.7001 16.3483L15.2418 7.82381C15.2668 7.47674 15.5668 7.21431 15.9084 7.23124C16.2501 7.25664 16.5168 7.55292 16.4918 7.90846L15.9501 16.433C15.8584 17.7535 15.7418 19.3873 12.8334 19.3873Z" fill="#292D32" />
    <path d="M11.5416 14.7317H8.7666C8.42493 14.7317 8.1416 14.4439 8.1416 14.0968C8.1416 13.7497 8.42493 13.4619 8.7666 13.4619H11.5416C11.8833 13.4619 12.1666 13.7497 12.1666 14.0968C12.1666 14.4439 11.8833 14.7317 11.5416 14.7317Z" fill="#292D32" />
    <path d="M12.2414 11.3455H8.07471C7.73304 11.3455 7.44971 11.0577 7.44971 10.7106C7.44971 10.3635 7.73304 10.0757 8.07471 10.0757H12.2414C12.583 10.0757 12.8664 10.3635 12.8664 10.7106C12.8664 11.0577 12.583 11.3455 12.2414 11.3455Z" fill="#292D32" />
</svg>