<svg width="23" height="23" viewBox="0 0 23 23" fill="none" xmlns="http://www.w3.org/2000/svg">
<path d="M11.9872 11.3442C11.9597 11.3442 11.9413 11.3442 11.9138 11.3442C11.868 11.335 11.8038 11.335 11.7488 11.3442C9.09051 11.2617 7.08301 9.17171 7.08301 6.59588C7.08301 3.97421 9.21884 1.83838 11.8405 1.83838C14.4622 1.83838 16.598 3.97421 16.598 6.59588C16.5888 9.17171 14.5722 11.2617 12.0147 11.3442C12.0055 11.3442 11.9963 11.3442 11.9872 11.3442ZM11.8405 3.21338C9.97967 3.21338 8.45801 4.73505 8.45801 6.59588C8.45801 8.42921 9.88801 9.90505 11.7122 9.96921C11.758 9.96005 11.8863 9.96005 12.0055 9.96921C13.8022 9.88671 15.2138 8.41088 15.223 6.59588C15.223 4.73505 13.7013 3.21338 11.8405 3.21338Z" fill="#292D32"/>
<path d="M11.9963 21.3631C10.1996 21.3631 8.3938 20.9047 7.02796 19.9881C5.7538 19.1447 5.05713 17.9897 5.05713 16.7339C5.05713 15.4781 5.7538 14.3139 7.02796 13.4614C9.77796 11.6372 14.233 11.6372 16.9646 13.4614C18.2296 14.3047 18.9355 15.4597 18.9355 16.7156C18.9355 17.9714 18.2388 19.1356 16.9646 19.9881C15.5896 20.9047 13.793 21.3631 11.9963 21.3631ZM7.7888 14.6164C6.9088 15.2031 6.43213 15.9547 6.43213 16.7431C6.43213 17.5222 6.91796 18.2739 7.7888 18.8514C10.0713 20.3822 13.9213 20.3822 16.2038 18.8514C17.0838 18.2647 17.5605 17.5131 17.5605 16.7247C17.5605 15.9456 17.0746 15.1939 16.2038 14.6164C13.9213 13.0947 10.0713 13.0947 7.7888 14.6164Z" fill="#292D32"/>
</svg>
