<svg width="23" height="23" viewBox="0 0 23 23" fill="none" xmlns="http://www.w3.org/2000/svg">
<path d="M18.2577 10.3231H16.4243C14.206 10.3231 12.9868 9.10391 12.9868 6.88558V5.05225C12.9868 2.83391 14.206 1.61475 16.4243 1.61475H18.2577C20.476 1.61475 21.6952 2.83391 21.6952 5.05225V6.88558C21.6952 9.10391 20.476 10.3231 18.2577 10.3231ZM16.4243 2.98975C14.976 2.98975 14.3618 3.60391 14.3618 5.05225V6.88558C14.3618 8.33391 14.976 8.94808 16.4243 8.94808H18.2577C19.706 8.94808 20.3202 8.33391 20.3202 6.88558V5.05225C20.3202 3.60391 19.706 2.98975 18.2577 2.98975H16.4243Z" fill="white"/>
<path d="M7.25765 21.3231H5.42432C3.20598 21.3231 1.98682 20.1039 1.98682 17.8856V16.0522C1.98682 13.8339 3.20598 12.6147 5.42432 12.6147H7.25765C9.47598 12.6147 10.6951 13.8339 10.6951 16.0522V17.8856C10.6951 20.1039 9.47598 21.3231 7.25765 21.3231ZM5.42432 13.9897C3.97598 13.9897 3.36182 14.6039 3.36182 16.0522V17.8856C3.36182 19.3339 3.97598 19.9481 5.42432 19.9481H7.25765C8.70598 19.9481 9.32015 19.3339 9.32015 17.8856V16.0522C9.32015 14.6039 8.70598 13.9897 7.25765 13.9897H5.42432Z" fill="white"/>
<path d="M6.34098 10.3231C3.93932 10.3231 1.98682 8.37058 1.98682 5.96891C1.98682 3.56725 3.93932 1.61475 6.34098 1.61475C8.74265 1.61475 10.6951 3.56725 10.6951 5.96891C10.6951 8.37058 8.74265 10.3231 6.34098 10.3231ZM6.34098 2.98975C4.70015 2.98975 3.36182 4.32808 3.36182 5.96891C3.36182 7.60975 4.70015 8.94808 6.34098 8.94808C7.98182 8.94808 9.32015 7.60975 9.32015 5.96891C9.32015 4.32808 7.98182 2.98975 6.34098 2.98975Z" fill="white"/>
<path d="M17.341 21.3231C14.9393 21.3231 12.9868 19.3706 12.9868 16.9689C12.9868 14.5672 14.9393 12.6147 17.341 12.6147C19.7427 12.6147 21.6952 14.5672 21.6952 16.9689C21.6952 19.3706 19.7427 21.3231 17.341 21.3231ZM17.341 13.9897C15.7002 13.9897 14.3618 15.3281 14.3618 16.9689C14.3618 18.6097 15.7002 19.9481 17.341 19.9481C18.9818 19.9481 20.3202 18.6097 20.3202 16.9689C20.3202 15.3281 18.9818 13.9897 17.341 13.9897Z" fill="white"/>
</svg>
