<svg width="21" height="22" viewBox="0 0 21 22" fill="none" xmlns="http://www.w3.org/2000/svg">
    <path d="M18.0909 6.51047C18.0742 6.51047 18.0492 6.51047 18.0242 6.51047C13.6159 6.06181 9.21587 5.89251 4.85754 6.34116L3.15754 6.51047C2.80754 6.54433 2.49921 6.29037 2.46587 5.93483C2.43254 5.57929 2.68254 5.27454 3.02421 5.24068L4.72421 5.07138C9.15754 4.61426 13.6492 4.79203 18.1492 5.24068C18.4909 5.27454 18.7409 5.58776 18.7075 5.93483C18.6825 6.26498 18.4075 6.51047 18.0909 6.51047Z" fill="white" fill-opacity="0.83"/>
    <path d="M7.6742 5.65554C7.64087 5.65554 7.60754 5.65554 7.56587 5.64708C7.23254 5.58782 6.9992 5.25767 7.05754 4.91907L7.24087 3.81012C7.3742 2.99746 7.55754 1.87158 9.4992 1.87158H11.6825C13.6325 1.87158 13.8159 3.03978 13.9409 3.81859L14.1242 4.91907C14.1825 5.26614 13.9492 5.59628 13.6159 5.64708C13.2742 5.70633 12.9492 5.46931 12.8992 5.1307L12.7159 4.03022C12.5992 3.29374 12.5742 3.14983 11.6909 3.14983H9.50754C8.6242 3.14983 8.60754 3.26835 8.48254 4.02175L8.29087 5.12223C8.24087 5.43544 7.9742 5.65554 7.6742 5.65554Z" fill="white" fill-opacity="0.83"/>
    <path d="M13.2658 20.0719H7.91582C5.00748 20.0719 4.89082 18.4381 4.79915 17.1175L4.25748 8.59303C4.23248 8.24596 4.49915 7.94121 4.84082 7.91581C5.19082 7.89888 5.48248 8.16131 5.50748 8.50838L6.04915 17.0329C6.14082 18.3196 6.17415 18.8021 7.91582 18.8021H13.2658C15.0158 18.8021 15.0492 18.3196 15.1325 17.0329L15.6742 8.50838C15.6992 8.16131 15.9992 7.89888 16.3408 7.91581C16.6825 7.94121 16.9492 8.23749 16.9242 8.59303L16.3825 17.1175C16.2908 18.4381 16.1742 20.0719 13.2658 20.0719Z" fill="white" fill-opacity="0.83"/>
    <path d="M11.9742 15.4163H9.19922C8.85755 15.4163 8.57422 15.1285 8.57422 14.7814C8.57422 14.4343 8.85755 14.1465 9.19922 14.1465H11.9742C12.3159 14.1465 12.5992 14.4343 12.5992 14.7814C12.5992 15.1285 12.3159 15.4163 11.9742 15.4163Z" fill="white" fill-opacity="0.83"/>
    <path d="M12.6742 12.03H8.50757C8.1659 12.03 7.88257 11.7422 7.88257 11.3951C7.88257 11.0481 8.1659 10.7603 8.50757 10.7603H12.6742C13.0159 10.7603 13.2992 11.0481 13.2992 11.3951C13.2992 11.7422 13.0159 12.03 12.6742 12.03Z" fill="white" fill-opacity="0.83"/>
    </svg>
    