<svg width="21" height="21" viewBox="0 0 21 21" fill="none" xmlns="http://www.w3.org/2000/svg">
<path d="M13.2667 19.8682H8.26668C3.74168 19.8682 1.80835 17.9043 1.80835 13.3077V8.22852C1.80835 3.6319 3.74168 1.66797 8.26668 1.66797H9.93335C10.275 1.66797 10.5583 1.95579 10.5583 2.30286C10.5583 2.64994 10.275 2.93775 9.93335 2.93775H8.26668C4.42502 2.93775 3.05835 4.32605 3.05835 8.22852V13.3077C3.05835 17.2101 4.42502 18.5984 8.26668 18.5984H13.2667C17.1083 18.5984 18.475 17.2101 18.475 13.3077V11.6146C18.475 11.2675 18.7583 10.9797 19.1 10.9797C19.4417 10.9797 19.725 11.2675 19.725 11.6146V13.3077C19.725 17.9043 17.7917 19.8682 13.2667 19.8682Z" fill="white" fill-opacity="0.83"/>
<path d="M7.84996 15.5852C7.34163 15.5852 6.87496 15.3989 6.53329 15.0603C6.12496 14.6455 5.94996 14.0445 6.04163 13.4096L6.39996 10.8616C6.46663 10.3706 6.78329 9.7357 7.12496 9.38863L13.6916 2.71803C15.35 1.03344 17.0333 1.03344 18.6916 2.71803C19.6 3.64074 20.0083 4.58038 19.925 5.52002C19.85 6.28189 19.45 7.02683 18.6916 7.7887L12.125 14.4593C11.7833 14.8064 11.1583 15.1281 10.675 15.1958L8.16663 15.5598C8.05829 15.5852 7.94996 15.5852 7.84996 15.5852ZM14.575 3.61534L8.00829 10.2859C7.84996 10.4468 7.66663 10.8193 7.63329 11.0393L7.27496 13.5874C7.24163 13.8329 7.29163 14.036 7.41663 14.163C7.54163 14.29 7.74163 14.3408 7.98329 14.3069L10.4916 13.9429C10.7083 13.9091 11.0833 13.7228 11.2333 13.562L17.8 6.89139C18.3416 6.34115 18.625 5.85016 18.6666 5.39304C18.7166 4.8428 18.4333 4.2587 17.8 3.60688C16.4666 2.25244 15.55 2.63337 14.575 3.61534Z" fill="white" fill-opacity="0.83"/>
<path d="M17.3082 8.93107C17.2498 8.93107 17.1915 8.9226 17.1415 8.90567C14.9498 8.27924 13.2082 6.51001 12.5915 4.28366C12.4998 3.94505 12.6915 3.59797 13.0248 3.49639C13.3582 3.40327 13.6998 3.59797 13.7915 3.93658C14.2915 5.73968 15.6998 7.1703 17.4748 7.67821C17.8082 7.77133 17.9998 8.12687 17.9082 8.46548C17.8332 8.7533 17.5832 8.93107 17.3082 8.93107Z" fill="white" fill-opacity="0.83"/>
</svg>
