<svg width="21" height="22" viewBox="0 0 21 22" fill="none" xmlns="http://www.w3.org/2000/svg">
<path d="M10.9423 14.637C8.95065 14.637 7.33398 12.9948 7.33398 10.9716C7.33398 8.94841 8.95065 7.30615 10.9423 7.30615C12.934 7.30615 14.5507 8.94841 14.5507 10.9716C14.5507 12.9948 12.934 14.637 10.9423 14.637ZM10.9423 8.57594C9.64232 8.57594 8.58398 9.65102 8.58398 10.9716C8.58398 12.2922 9.64232 13.3673 10.9423 13.3673C12.2423 13.3673 13.3007 12.2922 13.3007 10.9716C13.3007 9.65102 12.2423 8.57594 10.9423 8.57594Z" fill="#292D32" fill-opacity="0.83"/>
<path d="M10.9423 18.6072C7.80895 18.6072 4.85062 16.7449 2.81729 13.5111C1.93395 12.1144 1.93395 9.83724 2.81729 8.43201C4.85895 5.19829 7.81729 3.33594 10.9423 3.33594C14.0673 3.33594 17.0256 5.19829 19.059 8.43201C19.9423 9.82877 19.9423 12.1059 19.059 13.5111C17.0256 16.7449 14.0673 18.6072 10.9423 18.6072ZM10.9423 4.60572C8.25062 4.60572 5.67562 6.24798 3.87562 9.11769C3.25062 10.1081 3.25062 11.835 3.87562 12.8255C5.67562 15.6952 8.25062 17.3374 10.9423 17.3374C13.634 17.3374 16.209 15.6952 18.009 12.8255C18.634 11.835 18.634 10.1081 18.009 9.11769C16.209 6.24798 13.634 4.60572 10.9423 4.60572Z" fill="#292D32" fill-opacity="0.83"/>
</svg>
