<svg width="1000" height="1000" viewBox="0 0 1000 1000" fill="none" xmlns="http://www.w3.org/2000/svg">
<rect width="1000" height="1000" fill="white" fill-opacity="0.05"/>
<path d="M697.001 291.004C567.962 191.54 388.439 187.475 257.469 284.387C188.234 335.618 134.56 413.997 144.326 533.337C147.777 575.55 157.383 610.18 171.398 638.529C228.163 753.452 461.31 749.027 474.258 749.01C482.647 749.002 491.036 749.189 499.425 749.573C528.808 750.921 558.036 754.617 586.831 760.623C627.884 769.18 680.148 773.479 726.845 757.273C734.779 754.532 742.488 751.18 749.903 747.247C775.565 733.61 804.292 720.577 821.086 688.231C833.707 663.955 842.902 633.516 847.327 595.602C863.433 457.528 782.955 357.257 697.001 291.004Z" fill="#F2F2F2"/>
<path d="M499.989 785.862C703.775 785.862 868.977 770.354 868.977 751.225C868.977 732.095 703.775 716.588 499.989 716.588C296.202 716.588 131 732.095 131 751.225C131 770.354 296.202 785.862 499.989 785.862Z" fill="#3F3D56"/>
<path opacity="0.1" d="M481.963 767.483C671.5 767.483 825.151 760.204 825.151 751.225C825.151 742.246 671.5 734.967 481.963 734.967C292.426 734.967 138.776 742.246 138.776 751.225C138.776 760.204 292.426 767.483 481.963 767.483Z" fill="black"/>
<path d="M671.819 287.342V326.201H621.229V749.988H726.809V342.332V326.201V287.342H671.819Z" fill="#575A89"/>
<path d="M393.205 548.359V481.639H328.684V548.359H304.489V750.721H416.667V548.359H393.205Z" fill="#575A89"/>
<path d="M404.203 656.872H316.953V751.454H404.203V656.872Z" fill="#3F3D56"/>
<path opacity="0.1" d="M330.884 656.872H316.953V751.454H330.884V656.872Z" fill="black"/>
<path d="M583.836 266.079V288.808H454.793V266.079H416.667V751.454H621.229V266.079H583.836Z" fill="#3F3D56"/>
<path opacity="0.1" d="M612.43 266.079H583.836V288.808H612.43V266.079Z" fill="black"/>
<path opacity="0.1" d="M445.262 266.079H416.668V751.454H445.262V266.079Z" fill="black"/>
<path d="M270.762 404.653V386.323H251.699V404.653H217.238V751.454H304.489V404.653H270.762Z" fill="#3F3D56"/>
<path opacity="0.1" d="M261.964 386.323H251.699V404.653H261.964V386.323Z" fill="black"/>
<path opacity="0.1" d="M227.503 404.653H217.239V751.454H227.503V404.653Z" fill="black"/>
<path opacity="0.1" d="M612.43 453.044H583.836V751.454H612.43V453.044Z" fill="black"/>
<path opacity="0.1" d="M304.489 404.653H278.094V468.441H304.489V404.653Z" fill="black"/>
<path d="M489.254 327.668H448.195V345.264H489.254V327.668Z" fill="#FF6584"/>
<path d="M576.504 508.767H535.445V526.363H576.504V508.767Z" fill="#FF6584"/>
<path d="M489.254 635.609H448.195V653.206H489.254V635.609Z" fill="#FF6584"/>
<path d="M281.76 483.838H240.701V501.435H281.76V483.838Z" fill="#FF6584"/>
<path d="M381.474 667.137H340.415V684.733H381.474V667.137Z" fill="#FF6584"/>
<path opacity="0.1" d="M396.138 563.756H325.751V593.084H396.138V563.756Z" fill="black"/>
<path opacity="0.1" d="M704.08 359.928H633.693V389.256H704.08V359.928Z" fill="black"/>
<path opacity="0.1" d="M704.08 422.25H633.693V451.578H704.08V422.25Z" fill="black"/>
<path opacity="0.1" d="M704.08 484.571H633.693V513.899H704.08V484.571Z" fill="black"/>
<path opacity="0.1" d="M704.08 546.893H633.693V576.221H704.08V546.893Z" fill="black"/>
<path opacity="0.1" d="M704.08 609.214H633.693V638.542H704.08V609.214Z" fill="black"/>
<path opacity="0.1" d="M704.08 671.536H633.693V700.864H704.08V671.536Z" fill="black"/>
<path d="M751.004 492.636V412.718H699.68V492.636H681.35V751.454H768.601V492.636H751.004Z" fill="#3F3D56"/>
<path opacity="0.1" d="M715.811 412.718H699.681V492.636H715.811V412.718Z" fill="black"/>
<path opacity="0.1" d="M697.481 492.636H681.351V751.454H697.481V492.636Z" fill="black"/>
<path opacity="0.1" d="M768.601 622.412H725.342V648.074H768.601V622.412Z" fill="black"/>
<path d="M767.868 584.286H726.809V601.882H767.868V584.286Z" fill="#FF6584"/>
</svg>
