<svg width="25" height="25" viewBox="0 0 25 25" fill="none" xmlns="http://www.w3.org/2000/svg">
<path d="M18.394 16.1727C18.204 16.1727 18.014 16.1027 17.864 15.9527C17.574 15.6627 17.574 15.1827 17.864 14.8927L19.894 12.8627L17.864 10.8327C17.574 10.5427 17.574 10.0627 17.864 9.77268C18.154 9.48268 18.634 9.48268 18.924 9.77268L21.484 12.3327C21.774 12.6227 21.774 13.1027 21.484 13.3927L18.924 15.9527C18.774 16.1027 18.584 16.1727 18.394 16.1727Z" fill="white"/>
<path d="M20.8839 13.6128H10.7139C10.3039 13.6128 9.96387 13.2728 9.96387 12.8628C9.96387 12.4528 10.3039 12.1128 10.7139 12.1128H20.8839C21.2939 12.1128 21.6339 12.4528 21.6339 12.8628C21.6339 13.2728 21.2939 13.6128 20.8839 13.6128Z" fill="white"/>
<path d="M12.7139 21.5527C7.56387 21.5527 3.96387 17.9527 3.96387 12.8027C3.96387 7.65273 7.56387 4.05273 12.7139 4.05273C13.1239 4.05273 13.4639 4.39273 13.4639 4.80273C13.4639 5.21273 13.1239 5.55273 12.7139 5.55273C8.44387 5.55273 5.46387 8.53273 5.46387 12.8027C5.46387 17.0727 8.44387 20.0527 12.7139 20.0527C13.1239 20.0527 13.4639 20.3927 13.4639 20.8027C13.4639 21.2127 13.1239 21.5527 12.7139 21.5527Z" fill="white"/>
</svg>
