<svg width="23" height="23" viewBox="0 0 23 23" fill="none" xmlns="http://www.w3.org/2000/svg">
<g clip-path="url(#clip0_1_6)">
<path d="M21.5481 10.5177L11.5 16.5475L1.45186 10.5177C1.23392 10.3869 0.972949 10.3481 0.72637 10.4098C0.479791 10.4714 0.267799 10.6285 0.137031 10.8464C0.00626275 11.0644 -0.0325704 11.3253 0.0290743 11.5719C0.0907191 11.8185 0.247792 12.0305 0.465739 12.1612L11.0074 18.4862C11.1565 18.5758 11.3271 18.6231 11.5009 18.6231C11.6748 18.6231 11.8454 18.5758 11.9945 18.4862L22.5362 12.1612C22.7541 12.0305 22.9112 11.8185 22.9728 11.5719C23.0345 11.3253 22.9956 11.0644 22.8649 10.8464C22.7341 10.6285 22.5221 10.4714 22.2755 10.4098C22.0289 10.3481 21.768 10.3869 21.55 10.5177H21.5481Z" fill="white"/>
<path d="M21.5481 14.8954L11.5 20.9243L1.45186 14.8954C1.34394 14.8306 1.22433 14.7878 1.09985 14.7693C0.97537 14.7507 0.84846 14.7569 0.726367 14.7874C0.604273 14.818 0.489387 14.8722 0.388269 14.9472C0.28715 15.0221 0.201778 15.1162 0.137028 15.2241C0.0722783 15.332 0.0294182 15.4516 0.0108949 15.5761C-0.00762832 15.7006 -0.00145193 15.8275 0.0290715 15.9496C0.0907162 16.1962 0.247789 16.4082 0.465736 16.5389L11.0074 22.8639C11.1565 22.9535 11.3271 23.0008 11.5009 23.0008C11.6748 23.0008 11.8454 22.9535 11.9945 22.8639L22.5361 16.5389C22.7541 16.4082 22.9112 16.1962 22.9728 15.9496C23.0345 15.703 22.9956 15.442 22.8649 15.2241C22.7341 15.0062 22.5221 14.8491 22.2755 14.7874C22.0289 14.7258 21.768 14.7646 21.55 14.8954H21.5481Z" fill="white"/>
<path d="M11.5 14.1575C10.9831 14.1572 10.4759 14.0164 10.0328 13.7502L0.464794 8.0088C0.323102 7.9236 0.205862 7.80319 0.124471 7.65928C0.0430797 7.51537 0.000305176 7.35284 0.000305176 7.18751C0.000305176 7.02217 0.0430797 6.85965 0.124471 6.71574C0.205862 6.57183 0.323102 6.45142 0.464794 6.36622L10.0328 0.624846C10.4759 0.358649 10.9831 0.218018 11.5 0.218018C12.0169 0.218018 12.5241 0.358649 12.9672 0.624846L22.5352 6.36622C22.6769 6.45142 22.7941 6.57183 22.8755 6.71574C22.9569 6.85965 22.9997 7.02217 22.9997 7.18751C22.9997 7.35284 22.9569 7.51537 22.8755 7.65928C22.7941 7.80319 22.6769 7.9236 22.5352 8.0088L12.9672 13.7502C12.5241 14.0164 12.0169 14.1572 11.5 14.1575V14.1575ZM2.82133 7.18751L11.0208 12.1066C11.1657 12.1933 11.3312 12.239 11.5 12.239C11.6688 12.239 11.8343 12.1933 11.9792 12.1066L20.1787 7.18751L11.9792 2.26839C11.8343 2.18176 11.6688 2.13601 11.5 2.13601C11.3312 2.13601 11.1657 2.18176 11.0208 2.26839V2.26839L2.82133 7.18751Z" fill="white"/>
</g>    
<defs>
<clipPath id="clip0_1_6">
<rect width="23" height="23" fill="white"/>
</clipPath>
</defs>
</svg>
