<svg width="23" height="23" viewBox="0 0 23 23" fill="none" xmlns="http://www.w3.org/2000/svg">
<path d="M17.939 8.26904C16.0415 8.26904 14.5015 6.72904 14.5015 4.83154C14.5015 2.93404 16.0415 1.39404 17.939 1.39404C19.8365 1.39404 21.3765 2.93404 21.3765 4.83154C21.3765 6.72904 19.8365 8.26904 17.939 8.26904ZM17.939 2.76904C16.8023 2.76904 15.8765 3.69488 15.8765 4.83154C15.8765 5.96821 16.8023 6.89404 17.939 6.89404C19.0756 6.89404 20.0015 5.96821 20.0015 4.83154C20.0015 3.69488 19.0756 2.76904 17.939 2.76904Z" fill="white"/>
<path d="M11.5223 12.8521H6.93896C6.56313 12.8521 6.25146 12.5404 6.25146 12.1646C6.25146 11.7887 6.56313 11.4771 6.93896 11.4771H11.5223C11.8981 11.4771 12.2098 11.7887 12.2098 12.1646C12.2098 12.5404 11.8981 12.8521 11.5223 12.8521Z" fill="white"/>
<path d="M15.189 16.519H6.93896C6.56313 16.519 6.25146 16.2074 6.25146 15.8315C6.25146 15.4557 6.56313 15.144 6.93896 15.144H15.189C15.5648 15.144 15.8765 15.4557 15.8765 15.8315C15.8765 16.2074 15.5648 16.519 15.189 16.519Z" fill="white"/>
<path d="M14.2726 21.1024H8.77262C3.79512 21.1024 1.66846 18.9757 1.66846 13.9982V8.49821C1.66846 3.52071 3.79512 1.39404 8.77262 1.39404H13.356C13.7318 1.39404 14.0435 1.70571 14.0435 2.08154C14.0435 2.45738 13.7318 2.76904 13.356 2.76904H8.77262C4.54679 2.76904 3.04346 4.27238 3.04346 8.49821V13.9982C3.04346 18.224 4.54679 19.7274 8.77262 19.7274H14.2726C18.4985 19.7274 20.0018 18.224 20.0018 13.9982V9.41488C20.0018 9.03904 20.3135 8.72738 20.6893 8.72738C21.0651 8.72738 21.3768 9.03904 21.3768 9.41488V13.9982C21.3768 18.9757 19.2501 21.1024 14.2726 21.1024Z" fill="white"/>
</svg>
