<svg width="23" height="23" viewBox="0 0 23 23" fill="none" xmlns="http://www.w3.org/2000/svg">
<path d="M21.0077 21.1021H2.67432C2.29848 21.1021 1.98682 20.7904 1.98682 20.4146C1.98682 20.0387 2.29848 19.7271 2.67432 19.7271H21.0077C21.3835 19.7271 21.6952 20.0387 21.6952 20.4146C21.6952 20.7904 21.3835 21.1021 21.0077 21.1021Z" fill="white"/>
<path d="M3.6 21.1114C3.41666 21.1114 3.24247 21.038 3.11414 20.9097C2.9858 20.7814 2.9125 20.6072 2.9125 20.4239L2.90332 6.7289C2.90332 5.89473 3.32496 5.10637 4.02163 4.63887L7.68829 2.19139C8.54079 1.62305 9.64084 1.62305 10.4842 2.19139L14.1508 4.63887C14.8567 5.10637 15.2691 5.88556 15.2691 6.7289L15.2783 20.4055C15.2783 20.7814 14.9758 21.093 14.5908 21.093L3.6 21.1114ZM9.09082 3.13558C8.87082 3.13558 8.65082 3.19971 8.45832 3.32804L4.79165 5.77558C4.47082 5.98642 4.27832 6.3439 4.27832 6.7289L4.2875 19.7364L13.9125 19.718L13.9033 6.7289C13.9033 6.3439 13.7108 5.98637 13.3992 5.7847L9.7325 3.33722C9.54 3.19972 9.31082 3.13558 9.09082 3.13558Z" fill="white"/>
<path d="M19.1558 21.1114C18.7799 21.1114 18.4683 20.7997 18.4683 20.4239V16.748C18.4683 16.3722 18.7799 16.0605 19.1558 16.0605C19.5316 16.0605 19.8433 16.3722 19.8433 16.748V20.4239C19.8433 20.7997 19.5408 21.1114 19.1558 21.1114Z" fill="white"/>
<path d="M19.1742 17.4355C17.7808 17.4355 16.6533 16.308 16.6533 14.9147V13.0814C16.6533 11.688 17.7808 10.5605 19.1742 10.5605C20.5675 10.5605 21.695 11.688 21.695 13.0814V14.9147C21.695 16.308 20.5675 17.4355 19.1742 17.4355ZM19.1742 11.9355C18.5417 11.9355 18.0283 12.4489 18.0283 13.0814V14.9147C18.0283 15.5472 18.5417 16.0605 19.1742 16.0605C19.8067 16.0605 20.32 15.5472 20.32 14.9147V13.0814C20.32 12.4489 19.8067 11.9355 19.1742 11.9355Z" fill="white"/>
<path d="M14.5908 13.769H3.59082C3.21499 13.769 2.90332 13.4574 2.90332 13.0815C2.90332 12.7057 3.21499 12.394 3.59082 12.394H14.5908C14.9667 12.394 15.2783 12.7057 15.2783 13.0815C15.2783 13.4574 14.9667 13.769 14.5908 13.769Z" fill="white"/>
<path d="M9.09082 21.1021C8.71499 21.1021 8.40332 20.7904 8.40332 20.4146V16.9771C8.40332 16.6012 8.71499 16.2896 9.09082 16.2896C9.46665 16.2896 9.77832 16.6012 9.77832 16.9771V20.4146C9.77832 20.7904 9.46665 21.1021 9.09082 21.1021Z" fill="white"/>
<path d="M9.09082 10.5605C7.95415 10.5605 7.02832 9.63471 7.02832 8.49805C7.02832 7.36138 7.95415 6.43555 9.09082 6.43555C10.2275 6.43555 11.1533 7.36138 11.1533 8.49805C11.1533 9.63471 10.2275 10.5605 9.09082 10.5605ZM9.09082 7.81055C8.71499 7.81055 8.40332 8.12221 8.40332 8.49805C8.40332 8.87388 8.71499 9.18555 9.09082 9.18555C9.46665 9.18555 9.77832 8.87388 9.77832 8.49805C9.77832 8.12221 9.46665 7.81055 9.09082 7.81055Z" fill="white"/>
</svg>
