<svg width="24" height="23" viewBox="0 0 24 23" fill="none" xmlns="http://www.w3.org/2000/svg">
<path d="M11.271 20.622C5.96658 20.622 1.64795 16.3034 1.64795 10.999C1.64795 5.6946 5.96658 1.37598 11.271 1.37598C16.5754 1.37598 20.894 5.6946 20.894 10.999C20.894 16.3034 16.5754 20.622 11.271 20.622ZM11.271 2.78422C6.73642 2.78422 3.0562 6.47383 3.0562 10.999C3.0562 15.5242 6.73642 19.2138 11.271 19.2138C15.8055 19.2138 19.4858 15.5242 19.4858 10.999C19.4858 6.47383 15.8055 2.78422 11.271 2.78422Z" fill="#323A49" fill-opacity="0.81"/>
<path d="M21.1288 21.5609C20.9504 21.5609 20.772 21.4952 20.6312 21.3544L18.7535 19.4767C18.4813 19.2044 18.4813 18.7538 18.7535 18.4815C19.0258 18.2093 19.4764 18.2093 19.7487 18.4815L21.6263 20.3592C21.8986 20.6315 21.8986 21.0821 21.6263 21.3544C21.4855 21.4952 21.3071 21.5609 21.1288 21.5609Z" fill="#323A49" fill-opacity="0.81"/>
</svg>
