<svg width="23" height="23" viewBox="0 0 23 23" fill="none" xmlns="http://www.w3.org/2000/svg">
<path d="M17.0417 5.16667H16.17C15.8019 3.36246 14.2028 2 12.2917 2H10.7083C8.79725 2 7.19729 3.36246 6.82996 5.16667H5.95833C3.77571 5.16667 2 6.94238 2 9.125V17.0417C2 19.2243 3.77571 21 5.95833 21H17.0417C19.2243 21 21 19.2243 21 17.0417V9.125C21 6.94238 19.2243 5.16667 17.0417 5.16667ZM10.7083 3.58333H12.2917C13.324 3.58333 14.2035 4.24517 14.5305 5.16667H8.4695C8.79646 4.24517 9.676 3.58333 10.7083 3.58333ZM5.95833 6.75H17.0417C18.3511 6.75 19.4167 7.81558 19.4167 9.125V9.91667H17.0417V9.125C17.0417 8.688 16.6878 8.33333 16.25 8.33333C15.8122 8.33333 15.4583 8.688 15.4583 9.125V9.91667H7.54167V9.125C7.54167 8.688 7.18779 8.33333 6.75 8.33333C6.31221 8.33333 5.95833 8.688 5.95833 9.125V9.91667H3.58333V9.125C3.58333 7.81558 4.64892 6.75 5.95833 6.75ZM17.0417 19.4167H5.95833C4.64892 19.4167 3.58333 18.3511 3.58333 17.0417V11.5H5.95833V12.2917C5.95833 12.7287 6.31221 13.0833 6.75 13.0833C7.18779 13.0833 7.54167 12.7287 7.54167 12.2917V11.5H15.4583V12.2917C15.4583 12.7287 15.8122 13.0833 16.25 13.0833C16.6878 13.0833 17.0417 12.7287 17.0417 12.2917V11.5H19.4167V17.0417C19.4167 18.3511 18.3511 19.4167 17.0417 19.4167Z" fill="#292D32"/>
</svg>
