<svg width="21" height="21" viewBox="0 0 21 21" fill="none" xmlns="http://www.w3.org/2000/svg">
<path d="M18.0909 6.30686C18.0742 6.30686 18.0492 6.30686 18.0242 6.30686C13.6159 5.8582 9.21587 5.68889 4.85754 6.13755L3.15754 6.30686C2.80754 6.34072 2.49921 6.08676 2.46587 5.73122C2.43254 5.37568 2.68254 5.07093 3.02421 5.03707L4.72421 4.86777C9.15754 4.41064 13.6492 4.58841 18.1492 5.03707C18.4909 5.07093 18.7409 5.38415 18.7075 5.73122C18.6825 6.06136 18.4075 6.30686 18.0909 6.30686Z" fill="white" fill-opacity="0.83"/>
<path d="M7.6742 5.45193C7.64087 5.45193 7.60754 5.45193 7.56587 5.44346C7.23254 5.38421 6.9992 5.05406 7.05754 4.71545L7.24087 3.60651C7.3742 2.79384 7.55754 1.66797 9.4992 1.66797H11.6825C13.6325 1.66797 13.8159 2.83617 13.9409 3.61497L14.1242 4.71545C14.1825 5.06253 13.9492 5.39267 13.6159 5.44346C13.2742 5.50272 12.9492 5.26569 12.8992 4.92708L12.7159 3.8266C12.5992 3.09013 12.5742 2.94622 11.6909 2.94622H9.50754C8.6242 2.94622 8.60754 3.06473 8.48254 3.81814L8.29087 4.91862C8.24087 5.23183 7.9742 5.45193 7.6742 5.45193Z" fill="white" fill-opacity="0.83"/>
<path d="M13.2658 19.8683H7.91582C5.00748 19.8683 4.89082 18.2345 4.79915 16.9139L4.25748 8.38942C4.23248 8.04234 4.49915 7.7376 4.84082 7.7122C5.19082 7.69527 5.48248 7.95769 5.50748 8.30477L6.04915 16.8293C6.14082 18.116 6.17415 18.5985 7.91582 18.5985H13.2658C15.0158 18.5985 15.0492 18.116 15.1325 16.8293L15.6742 8.30477C15.6992 7.95769 15.9992 7.69527 16.3408 7.7122C16.6825 7.7376 16.9492 8.03388 16.9242 8.38942L16.3825 16.9139C16.2908 18.2345 16.1742 19.8683 13.2658 19.8683Z" fill="white" fill-opacity="0.83"/>
<path d="M11.9742 15.2127H9.19922C8.85755 15.2127 8.57422 14.9248 8.57422 14.5778C8.57422 14.2307 8.85755 13.9429 9.19922 13.9429H11.9742C12.3159 13.9429 12.5992 14.2307 12.5992 14.5778C12.5992 14.9248 12.3159 15.2127 11.9742 15.2127Z" fill="white" fill-opacity="0.83"/>
<path d="M12.6742 11.8264H8.50757C8.1659 11.8264 7.88257 11.5386 7.88257 11.1915C7.88257 10.8445 8.1659 10.5566 8.50757 10.5566H12.6742C13.0159 10.5566 13.2992 10.8445 13.2992 11.1915C13.2992 11.5386 13.0159 11.8264 12.6742 11.8264Z" fill="white" fill-opacity="0.83"/>
</svg>
