<svg width="21" height="22" viewBox="0 0 21 22" fill="none" xmlns="http://www.w3.org/2000/svg">
<path d="M10.2511 10.65C10.2261 10.65 10.2094 10.65 10.1844 10.65C10.1427 10.6416 10.0844 10.6416 10.0344 10.65C7.61772 10.5738 5.79272 8.64377 5.79272 6.26504C5.79272 3.84398 7.73439 1.87158 10.1177 1.87158C12.5011 1.87158 14.4427 3.84398 14.4427 6.26504C14.4344 8.64377 12.6011 10.5738 10.2761 10.65C10.2677 10.65 10.2594 10.65 10.2511 10.65ZM10.1177 3.14137C8.42606 3.14137 7.04272 4.5466 7.04272 6.26504C7.04272 7.95808 8.34272 9.32099 10.0011 9.38024C10.0427 9.37178 10.1594 9.37178 10.2677 9.38024C11.9011 9.30406 13.1844 7.94115 13.1927 6.26504C13.1927 4.5466 11.8094 3.14137 10.1177 3.14137Z" fill="white" fill-opacity="0.83"/>
<path d="M10.2595 19.9028C8.62617 19.9028 6.98451 19.4795 5.74284 18.633C4.58451 17.8542 3.95117 16.7875 3.95117 15.6278C3.95117 14.4681 4.58451 13.393 5.74284 12.6057C8.24284 10.9211 12.2928 10.9211 14.7762 12.6057C15.9262 13.3845 16.5678 14.4511 16.5678 15.6109C16.5678 16.7706 15.9345 17.8457 14.7762 18.633C13.5262 19.4795 11.8928 19.9028 10.2595 19.9028ZM6.43451 13.6723C5.63451 14.2141 5.20117 14.9083 5.20117 15.6363C5.20117 16.3558 5.64284 17.05 6.43451 17.5833C8.50951 18.997 12.0095 18.997 14.0845 17.5833C14.8845 17.0415 15.3178 16.3474 15.3178 15.6193C15.3178 14.8998 14.8762 14.2056 14.0845 13.6723C12.0095 12.2671 8.50951 12.2671 6.43451 13.6723Z" fill="white" fill-opacity="0.83"/>
</svg>
