<svg width="35" height="35" viewBox="0 0 35 35" fill="none" xmlns="http://www.w3.org/2000/svg">
    <circle cx="17.4447" cy="17.2118" r="17.0326" fill="#2D4ACD"/>
    <path d="M19.4546 24.4099H15.4368C11.8006 24.4099 10.2471 22.8564 10.2471 19.2202V15.2024C10.2471 11.5663 11.8006 10.0127 15.4368 10.0127H16.776C17.0506 10.0127 17.2783 10.2404 17.2783 10.5149C17.2783 10.7895 17.0506 11.0172 16.776 11.0172H15.4368C12.3497 11.0172 11.2515 12.1154 11.2515 15.2024V19.2202C11.2515 22.3073 12.3497 23.4055 15.4368 23.4055H19.4546C22.5416 23.4055 23.6398 22.3073 23.6398 19.2202V17.8809C23.6398 17.6064 23.8675 17.3787 24.1421 17.3787C24.4166 17.3787 24.6443 17.6064 24.6443 17.8809V19.2202C24.6443 22.8564 23.0907 24.4099 19.4546 24.4099Z" fill="white"/>
    <path d="M15.1021 21.0212C14.6936 21.0212 14.3186 20.8739 14.0441 20.606C13.716 20.2779 13.5754 19.8025 13.649 19.3002L13.937 17.2846C13.9905 16.8962 14.245 16.394 14.5195 16.1194L19.7963 10.8427C21.1289 9.51012 22.4815 9.51012 23.8141 10.8427C24.544 11.5726 24.8721 12.3159 24.8052 13.0592C24.7449 13.6619 24.4235 14.2512 23.8141 14.8538L18.5374 20.1306C18.2628 20.4051 17.7606 20.6596 17.3722 20.7132L15.3566 21.0011C15.2695 21.0212 15.1825 21.0212 15.1021 21.0212ZM20.5061 11.5525L15.2294 16.8293C15.1021 16.9565 14.9548 17.2511 14.928 17.4252L14.6401 19.4408C14.6133 19.635 14.6535 19.7958 14.7539 19.8962C14.8544 19.9966 15.0151 20.0368 15.2093 20.01L17.2249 19.7221C17.399 19.6953 17.7003 19.548 17.8209 19.4208L23.0976 14.144C23.5329 13.7087 23.7605 13.3204 23.794 12.9588C23.8342 12.5235 23.6065 12.0614 23.0976 11.5458C22.0262 10.4744 21.2896 10.7757 20.5061 11.5525Z" fill="white"/>
    <path d="M22.7026 15.7579C22.6557 15.7579 22.6088 15.7512 22.5687 15.7378C20.8075 15.2423 19.408 13.8427 18.9124 12.0816C18.8388 11.8137 18.9928 11.5392 19.2606 11.4588C19.5285 11.3852 19.803 11.5392 19.8767 11.807C20.2785 13.2334 21.4102 14.365 22.8365 14.7668C23.1044 14.8405 23.2584 15.1217 23.1847 15.3896C23.1245 15.6173 22.9236 15.7579 22.7026 15.7579Z" fill="white"/>
    </svg>
    